<svg width="233" height="233" viewBox="0 0 233 233" fill="none" xmlns="http://www.w3.org/2000/svg">
<path d="M183.38 21.6093C185.808 23.8253 188.723 25.6977 190.58 28.3191C197.649 38.2835 201.602 49.5875 203.645 61.5671C206.162 76.3226 206.247 91.1012 203.386 105.81C200.761 119.292 194.066 130.708 184.959 140.842C174.342 152.659 161.818 162.18 148.398 170.453C141.384 174.781 133.72 178.078 126.269 181.668C115.66 186.78 105.232 192.169 96.2061 199.868C90.2491 204.948 85.319 210.813 83.0258 218.464C82.2421 221.082 81.8908 223.831 81.3233 226.61C80.9797 226.541 80.5395 226.499 80.1264 226.363C62.1628 220.43 46.6082 210.631 33.4317 197.08C32.8488 196.482 32.5283 195.266 32.6403 194.409C34.3583 181.302 42.234 172.507 52.9319 165.732C59.4873 161.581 66.7184 158.906 73.876 156.061C94.6541 147.807 115.139 138.912 134.376 127.422C146.843 119.975 158.394 111.312 167.744 100.077C178.678 86.9394 185.746 72.1067 187.017 54.7955C187.793 44.2134 186.229 33.9557 183.322 23.833C183.152 23.2462 183.017 22.6516 182.866 22.0571C183.036 21.9104 183.206 21.7598 183.376 21.6131L183.38 21.6093Z" fill="url(#paint0_linear_357_1402)"/>
<path d="M163.777 10.3904C168.669 13.1392 173.645 15.8764 178.533 18.7642C179.146 19.1271 179.424 20.266 179.625 21.1038C183.107 35.4963 181.528 49.414 175.502 62.8569C169.39 76.4966 159.831 87.4763 148.763 97.2785C131.977 112.142 112.554 122.431 91.6251 130.017C79.3173 134.48 66.8165 138.422 54.501 142.869C48.9687 144.869 43.4942 147.189 38.3171 149.969C28.1751 155.412 19.0292 161.968 16.6433 174.874C16.0642 174.056 15.7129 173.646 15.4581 173.187C2.03843 148.988 -2.2276 123.238 2.34728 95.9736C2.56734 94.6533 3.0422 94.3483 4.38185 94.5413C15.4542 96.1512 26.5961 96.9697 37.7766 96.85C65.1333 96.5489 91.5363 91.5763 116.43 79.9055C132.533 72.3541 145.674 61.3975 154.067 45.3758C159.411 35.172 162.376 24.2927 163.082 12.7956C163.117 12.2243 163.186 11.6529 163.264 11.0815C163.279 10.9734 163.406 10.8769 163.773 10.3904H163.777Z" fill="url(#paint1_linear_357_1402)"/>
<path d="M103.511 231.344C103.406 223.526 106.561 217.36 112.174 212.28C116.425 208.435 121.517 205.979 126.54 203.396C145.677 193.552 163.888 182.286 180.021 167.925C191.136 158.034 200.765 146.938 207.509 133.514C212.088 124.407 214.153 114.717 215.01 104.644C217.176 79.1834 210.212 56.1468 196.738 34.7935C196.19 33.9248 195.657 33.0484 195.128 32.1644C195.074 32.0756 195.12 31.9289 195.12 31.8169C224.55 57.3745 242.73 106.401 225.461 155.15C207.181 206.751 155.645 237.64 103.503 231.344H103.511Z" fill="url(#paint2_linear_357_1402)"/>
<path d="M6.9082 78.4734C10.4407 68.3045 15.3283 59.062 21.1309 50.2211C23.5786 46.4917 26.0571 44.9976 30.8405 45.3721C55.9927 47.341 80.6971 44.3066 104.869 37.1875C123.57 31.6783 140.398 22.7795 154.108 8.63402C155.899 6.78476 157.177 8.20163 158.725 8.55681C160.296 8.91585 160.022 10.0856 159.945 11.1396C158.818 26.2 152.946 39.1603 142.56 50.0744C130.345 62.9111 115.076 70.532 98.4214 75.7246C78.7822 81.8477 58.672 83.9633 38.1719 82.7433C27.9758 82.1372 17.8763 80.8091 7.86951 78.7746C7.62243 78.7244 7.38692 78.624 6.91206 78.4734H6.9082Z" fill="url(#paint3_linear_357_1402)"/>
<path d="M38.8516 30.296C53.9159 16.9844 71.1537 7.80759 90.8586 3.41415C111.281 -1.14143 131.484 -0.199429 152.019 6.16294C149.711 7.96587 147.83 9.56805 145.819 10.9811C132.604 20.2582 117.791 25.6284 102.054 28.6359C84.2298 32.041 66.243 32.6239 48.1712 31.5043C45.1174 31.3152 42.0675 31.1144 39.0176 30.9214C38.9635 30.7129 38.9095 30.5044 38.8516 30.296Z" fill="url(#paint4_linear_357_1402)"/>
<defs>
<linearGradient id="paint0_linear_357_1402" x1="119.075" y1="21.6093" x2="130.637" y2="324.103" gradientUnits="userSpaceOnUse">
<stop offset="0.025" stop-color="#FFCA1C"/>
<stop offset="0.215" stop-color="#FFC506"/>
<stop offset="1" stop-color="#C5261F"/>
</linearGradient>
<linearGradient id="paint1_linear_357_1402" x1="91.0125" y1="10.3904" x2="98.1327" y2="253.243" gradientUnits="userSpaceOnUse">
<stop offset="0.025" stop-color="#FFCA1C"/>
<stop offset="0.215" stop-color="#FFC506"/>
<stop offset="1" stop-color="#C5261F"/>
</linearGradient>
<linearGradient id="paint2_linear_357_1402" x1="167.838" y1="31.8169" x2="182.661" y2="327.115" gradientUnits="userSpaceOnUse">
<stop offset="0.025" stop-color="#FFCA1C"/>
<stop offset="0.215" stop-color="#FFC506"/>
<stop offset="1" stop-color="#C5261F"/>
</linearGradient>
<linearGradient id="paint3_linear_357_1402" x1="83.4604" y1="7.70325" x2="78.4557" y2="118.433" gradientUnits="userSpaceOnUse">
<stop offset="0.025" stop-color="#FFCA1C"/>
<stop offset="0.335" stop-color="#FFC506"/>
<stop offset="1" stop-color="#C5261F"/>
</linearGradient>
<linearGradient id="paint4_linear_357_1402" x1="95.4354" y1="0.577393" x2="95.8516" y2="47.0402" gradientUnits="userSpaceOnUse">
<stop offset="0.025" stop-color="#FFCA1C"/>
<stop offset="0.37" stop-color="#FFC506"/>
<stop offset="0.95" stop-color="#C5261F"/>
</linearGradient>
</defs>
</svg>
