<svg width="48" height="49" viewBox="0 0 48 49" fill="none" xmlns="http://www.w3.org/2000/svg">
<path d="M39.4906 26.1411C41.0724 23.8735 42 21.1155 42 18.1411C42 10.4091 35.732 4.14111 28 4.14111C20.268 4.14111 14 10.4091 14 18.1411C14 20.2883 14.4834 22.3225 15.3473 24.1411" stroke="white" stroke-width="3" stroke-linecap="round" stroke-linejoin="round"/>
<path d="M28 12.1411C25.7908 12.1411 24 13.4843 24 15.1411C24 16.798 25.7908 18.1411 28 18.1411C30.2092 18.1411 32 19.4843 32 21.1411C32 22.7979 30.2092 24.1411 28 24.1411M28 12.1411C29.7416 12.1411 31.2232 12.9759 31.7724 14.1411M28 12.1411V10.1411M28 24.1411C26.2584 24.1411 24.7768 23.3063 24.2276 22.1411M28 24.1411V26.1411" stroke="white" stroke-width="3" stroke-linecap="round"/>
<path d="M6.00049 28.1411H10.7901C11.3784 28.1411 11.9586 28.2737 12.4848 28.5283L16.5688 30.5043C17.095 30.7589 17.6752 30.8913 18.2635 30.8913H20.3487C22.3655 30.8913 24.0005 32.4735 24.0005 34.4251C24.0005 34.5039 23.9465 34.5733 23.8681 34.5949L18.7862 36.0001C17.8746 36.2521 16.8985 36.1643 16.0505 35.7539L11.6847 33.6417M24.0005 33.1411L33.1861 30.3189C34.8145 29.8115 36.5747 30.4131 37.5947 31.8257C38.3323 32.8469 38.0319 34.3095 36.9575 34.9295L21.9263 43.6021C20.9703 44.1537 19.8424 44.2883 18.7908 43.9763L6.00049 40.1809" stroke="white" stroke-width="3" stroke-linecap="round" stroke-linejoin="round"/>
</svg>
